<mxfile host="Electron" agent="Mozilla/5.0 (Windows NT 10.0; Win64; x64) AppleWebKit/537.36 (KHTML, like Gecko) draw.io/28.0.6 Chrome/138.0.7204.100 Electron/37.2.3 Safari/537.36" version="28.0.6">
  <diagram name="Page-1" id="ygFcoyWYrslfsJ8aY2pr">
    <mxGraphModel dx="595" dy="385" grid="1" gridSize="10" guides="1" tooltips="1" connect="1" arrows="1" fold="1" page="1" pageScale="1" pageWidth="850" pageHeight="1100" math="0" shadow="0">
      <root>
        <mxCell id="0" />
        <mxCell id="1" parent="0" />
        <mxCell id="LeyTQ-VIh-IyvVX9vQep-1" value="" style="rounded=0;whiteSpace=wrap;html=1;fillColor=none;dashed=1;" parent="1" vertex="1">
          <mxGeometry x="70" y="180" width="120" height="300" as="geometry" />
        </mxCell>
        <mxCell id="LeyTQ-VIh-IyvVX9vQep-2" value="Sources" style="rounded=1;whiteSpace=wrap;html=1;strokeColor=none;" parent="1" vertex="1">
          <mxGeometry x="93" y="170" width="70" height="20" as="geometry" />
        </mxCell>
        <mxCell id="LeyTQ-VIh-IyvVX9vQep-3" value="" style="rounded=1;whiteSpace=wrap;html=1;fillColor=none;strokeColor=#C09975;" parent="1" vertex="1">
          <mxGeometry x="230" y="210" width="110" height="270" as="geometry" />
        </mxCell>
        <mxCell id="LeyTQ-VIh-IyvVX9vQep-4" value="&lt;b&gt;Bronze Layer&lt;/b&gt;" style="rounded=1;whiteSpace=wrap;html=1;fillColor=#ffe6cc;strokeColor=#d79b00;" parent="1" vertex="1">
          <mxGeometry x="230" y="180" width="110" height="20" as="geometry" />
        </mxCell>
        <mxCell id="LeyTQ-VIh-IyvVX9vQep-5" value="&lt;font style=&quot;font-size: 9px;&quot;&gt;crm_sales_details&lt;/font&gt;" style="rounded=1;whiteSpace=wrap;html=1;strokeColor=#d79b00;fillColor=#ffe6cc;" parent="1" vertex="1">
          <mxGeometry x="233.75" y="250" width="102.5" height="20" as="geometry" />
        </mxCell>
        <mxCell id="LeyTQ-VIh-IyvVX9vQep-6" value="&lt;span style=&quot;font-size: 9px;&quot;&gt;crm_cust_info&lt;/span&gt;" style="rounded=1;whiteSpace=wrap;html=1;strokeColor=#d79b00;fillColor=#ffe6cc;" parent="1" vertex="1">
          <mxGeometry x="233.75" y="280" width="102.5" height="20" as="geometry" />
        </mxCell>
        <mxCell id="LeyTQ-VIh-IyvVX9vQep-7" value="&lt;span style=&quot;font-size: 9px;&quot;&gt;crm_prd_info&lt;/span&gt;" style="rounded=1;whiteSpace=wrap;html=1;strokeColor=#d79b00;fillColor=#ffe6cc;" parent="1" vertex="1">
          <mxGeometry x="233.75" y="310" width="102.5" height="20" as="geometry" />
        </mxCell>
        <mxCell id="LeyTQ-VIh-IyvVX9vQep-8" value="" style="image;aspect=fixed;html=1;points=[];align=center;fontSize=12;image=img/lib/azure2/general/Folder_Blank.svg;" parent="1" vertex="1">
          <mxGeometry x="105.82" y="274" width="44.36" height="36" as="geometry" />
        </mxCell>
        <mxCell id="LeyTQ-VIh-IyvVX9vQep-9" value="&lt;b&gt;CRM&lt;/b&gt;" style="text;html=1;align=center;verticalAlign=middle;whiteSpace=wrap;rounded=0;" parent="1" vertex="1">
          <mxGeometry x="98" y="305" width="60" height="30" as="geometry" />
        </mxCell>
        <mxCell id="LeyTQ-VIh-IyvVX9vQep-13" style="edgeStyle=orthogonalEdgeStyle;rounded=0;orthogonalLoop=1;jettySize=auto;html=1;entryX=0.004;entryY=0.303;entryDx=0;entryDy=0;entryPerimeter=0;" parent="1" source="LeyTQ-VIh-IyvVX9vQep-8" target="LeyTQ-VIh-IyvVX9vQep-3" edge="1">
          <mxGeometry relative="1" as="geometry" />
        </mxCell>
        <mxCell id="LeyTQ-VIh-IyvVX9vQep-15" style="edgeStyle=orthogonalEdgeStyle;rounded=0;orthogonalLoop=1;jettySize=auto;html=1;entryX=0.018;entryY=0.414;entryDx=0;entryDy=0;entryPerimeter=0;" parent="1" source="LeyTQ-VIh-IyvVX9vQep-8" target="LeyTQ-VIh-IyvVX9vQep-3" edge="1">
          <mxGeometry relative="1" as="geometry" />
        </mxCell>
        <mxCell id="LeyTQ-VIh-IyvVX9vQep-16" style="edgeStyle=orthogonalEdgeStyle;rounded=0;orthogonalLoop=1;jettySize=auto;html=1;entryX=0.011;entryY=0.193;entryDx=0;entryDy=0;entryPerimeter=0;" parent="1" source="LeyTQ-VIh-IyvVX9vQep-8" target="LeyTQ-VIh-IyvVX9vQep-3" edge="1">
          <mxGeometry relative="1" as="geometry" />
        </mxCell>
        <mxCell id="LeyTQ-VIh-IyvVX9vQep-17" value="&lt;font style=&quot;font-size: 9px;&quot;&gt;crm_sales_details&lt;/font&gt;" style="rounded=1;whiteSpace=wrap;html=1;strokeColor=#d79b00;fillColor=#ffe6cc;" parent="1" vertex="1">
          <mxGeometry x="233.75" y="369" width="102.5" height="20" as="geometry" />
        </mxCell>
        <mxCell id="LeyTQ-VIh-IyvVX9vQep-18" value="&lt;span style=&quot;font-size: 9px;&quot;&gt;crm_cust_info&lt;/span&gt;" style="rounded=1;whiteSpace=wrap;html=1;strokeColor=#d79b00;fillColor=#ffe6cc;" parent="1" vertex="1">
          <mxGeometry x="233.75" y="399" width="102.5" height="20" as="geometry" />
        </mxCell>
        <mxCell id="LeyTQ-VIh-IyvVX9vQep-19" value="&lt;span style=&quot;font-size: 9px;&quot;&gt;crm_prd_info&lt;/span&gt;" style="rounded=1;whiteSpace=wrap;html=1;strokeColor=#d79b00;fillColor=#ffe6cc;" parent="1" vertex="1">
          <mxGeometry x="233.75" y="429" width="102.5" height="20" as="geometry" />
        </mxCell>
        <mxCell id="LeyTQ-VIh-IyvVX9vQep-30" value="" style="image;aspect=fixed;html=1;points=[];align=center;fontSize=12;image=img/lib/azure2/general/Folder_Blank.svg;" parent="1" vertex="1">
          <mxGeometry x="106.42999999999999" y="389" width="43.75" height="35.5" as="geometry" />
        </mxCell>
        <mxCell id="LeyTQ-VIh-IyvVX9vQep-31" value="&lt;b&gt;ERP&lt;/b&gt;" style="text;html=1;align=center;verticalAlign=middle;whiteSpace=wrap;rounded=0;" parent="1" vertex="1">
          <mxGeometry x="98" y="424.5" width="60" height="30" as="geometry" />
        </mxCell>
        <mxCell id="LeyTQ-VIh-IyvVX9vQep-32" style="edgeStyle=orthogonalEdgeStyle;rounded=0;orthogonalLoop=1;jettySize=auto;html=1;entryX=0;entryY=0.729;entryDx=0;entryDy=0;entryPerimeter=0;" parent="1" source="LeyTQ-VIh-IyvVX9vQep-30" target="LeyTQ-VIh-IyvVX9vQep-3" edge="1">
          <mxGeometry relative="1" as="geometry" />
        </mxCell>
        <mxCell id="LeyTQ-VIh-IyvVX9vQep-33" style="edgeStyle=orthogonalEdgeStyle;rounded=0;orthogonalLoop=1;jettySize=auto;html=1;entryX=-0.02;entryY=0.632;entryDx=0;entryDy=0;entryPerimeter=0;" parent="1" source="LeyTQ-VIh-IyvVX9vQep-30" target="LeyTQ-VIh-IyvVX9vQep-3" edge="1">
          <mxGeometry relative="1" as="geometry" />
        </mxCell>
        <mxCell id="LeyTQ-VIh-IyvVX9vQep-34" style="edgeStyle=orthogonalEdgeStyle;rounded=0;orthogonalLoop=1;jettySize=auto;html=1;entryX=0.001;entryY=0.854;entryDx=0;entryDy=0;entryPerimeter=0;" parent="1" source="LeyTQ-VIh-IyvVX9vQep-30" target="LeyTQ-VIh-IyvVX9vQep-3" edge="1">
          <mxGeometry relative="1" as="geometry" />
        </mxCell>
        <mxCell id="1qv2fpEwnzw17ocw0TtQ-1" value="" style="rounded=1;whiteSpace=wrap;html=1;fillColor=none;strokeColor=#666666;fontColor=#333333;" vertex="1" parent="1">
          <mxGeometry x="400" y="210" width="110" height="270" as="geometry" />
        </mxCell>
        <mxCell id="1qv2fpEwnzw17ocw0TtQ-2" value="&lt;b&gt;Silver Layer&lt;/b&gt;" style="rounded=1;whiteSpace=wrap;html=1;fillColor=#f5f5f5;strokeColor=#666666;fontColor=#333333;" vertex="1" parent="1">
          <mxGeometry x="400" y="180" width="110" height="20" as="geometry" />
        </mxCell>
        <mxCell id="1qv2fpEwnzw17ocw0TtQ-3" value="&lt;font style=&quot;font-size: 9px;&quot;&gt;crm_sales_details&lt;/font&gt;" style="rounded=1;whiteSpace=wrap;html=1;strokeColor=#666666;fillColor=#f5f5f5;fontColor=#333333;" vertex="1" parent="1">
          <mxGeometry x="403.75" y="250" width="102.5" height="20" as="geometry" />
        </mxCell>
        <mxCell id="1qv2fpEwnzw17ocw0TtQ-4" value="&lt;span style=&quot;font-size: 9px;&quot;&gt;crm_cust_info&lt;/span&gt;" style="rounded=1;whiteSpace=wrap;html=1;strokeColor=#666666;fillColor=#f5f5f5;fontColor=#333333;" vertex="1" parent="1">
          <mxGeometry x="403.75" y="280" width="102.5" height="20" as="geometry" />
        </mxCell>
        <mxCell id="1qv2fpEwnzw17ocw0TtQ-5" value="&lt;span style=&quot;font-size: 9px;&quot;&gt;crm_prd_info&lt;/span&gt;" style="rounded=1;whiteSpace=wrap;html=1;strokeColor=#666666;fillColor=#f5f5f5;fontColor=#333333;" vertex="1" parent="1">
          <mxGeometry x="403.75" y="310" width="102.5" height="20" as="geometry" />
        </mxCell>
        <mxCell id="1qv2fpEwnzw17ocw0TtQ-6" value="&lt;font style=&quot;font-size: 9px;&quot;&gt;crm_sales_details&lt;/font&gt;" style="rounded=1;whiteSpace=wrap;html=1;strokeColor=#666666;fillColor=#f5f5f5;fontColor=#333333;" vertex="1" parent="1">
          <mxGeometry x="403.75" y="369" width="102.5" height="20" as="geometry" />
        </mxCell>
        <mxCell id="1qv2fpEwnzw17ocw0TtQ-7" value="&lt;span style=&quot;font-size: 9px;&quot;&gt;crm_cust_info&lt;/span&gt;" style="rounded=1;whiteSpace=wrap;html=1;strokeColor=#666666;fillColor=#f5f5f5;fontColor=#333333;" vertex="1" parent="1">
          <mxGeometry x="403.75" y="399" width="102.5" height="20" as="geometry" />
        </mxCell>
        <mxCell id="1qv2fpEwnzw17ocw0TtQ-8" value="&lt;span style=&quot;font-size: 9px;&quot;&gt;crm_prd_info&lt;/span&gt;" style="rounded=1;whiteSpace=wrap;html=1;strokeColor=#666666;fillColor=#f5f5f5;fontColor=#333333;" vertex="1" parent="1">
          <mxGeometry x="403.75" y="429" width="102.5" height="20" as="geometry" />
        </mxCell>
        <mxCell id="1qv2fpEwnzw17ocw0TtQ-9" style="edgeStyle=orthogonalEdgeStyle;rounded=0;orthogonalLoop=1;jettySize=auto;html=1;entryX=-0.002;entryY=0.183;entryDx=0;entryDy=0;entryPerimeter=0;" edge="1" parent="1" source="LeyTQ-VIh-IyvVX9vQep-5" target="1qv2fpEwnzw17ocw0TtQ-1">
          <mxGeometry relative="1" as="geometry" />
        </mxCell>
        <mxCell id="1qv2fpEwnzw17ocw0TtQ-10" style="edgeStyle=orthogonalEdgeStyle;rounded=0;orthogonalLoop=1;jettySize=auto;html=1;entryX=-0.006;entryY=0.298;entryDx=0;entryDy=0;entryPerimeter=0;" edge="1" parent="1" source="LeyTQ-VIh-IyvVX9vQep-6" target="1qv2fpEwnzw17ocw0TtQ-1">
          <mxGeometry relative="1" as="geometry" />
        </mxCell>
        <mxCell id="1qv2fpEwnzw17ocw0TtQ-11" style="edgeStyle=orthogonalEdgeStyle;rounded=0;orthogonalLoop=1;jettySize=auto;html=1;entryX=-0.006;entryY=0.406;entryDx=0;entryDy=0;entryPerimeter=0;" edge="1" parent="1" source="LeyTQ-VIh-IyvVX9vQep-7" target="1qv2fpEwnzw17ocw0TtQ-1">
          <mxGeometry relative="1" as="geometry" />
        </mxCell>
        <mxCell id="1qv2fpEwnzw17ocw0TtQ-12" style="edgeStyle=orthogonalEdgeStyle;rounded=0;orthogonalLoop=1;jettySize=auto;html=1;entryX=-0.015;entryY=0.628;entryDx=0;entryDy=0;entryPerimeter=0;" edge="1" parent="1" source="LeyTQ-VIh-IyvVX9vQep-17" target="1qv2fpEwnzw17ocw0TtQ-1">
          <mxGeometry relative="1" as="geometry" />
        </mxCell>
        <mxCell id="1qv2fpEwnzw17ocw0TtQ-13" style="edgeStyle=orthogonalEdgeStyle;rounded=0;orthogonalLoop=1;jettySize=auto;html=1;" edge="1" parent="1" source="LeyTQ-VIh-IyvVX9vQep-18">
          <mxGeometry relative="1" as="geometry">
            <mxPoint x="400" y="408" as="targetPoint" />
          </mxGeometry>
        </mxCell>
        <mxCell id="1qv2fpEwnzw17ocw0TtQ-14" style="edgeStyle=orthogonalEdgeStyle;rounded=0;orthogonalLoop=1;jettySize=auto;html=1;entryX=-0.011;entryY=0.846;entryDx=0;entryDy=0;entryPerimeter=0;" edge="1" parent="1" source="LeyTQ-VIh-IyvVX9vQep-19" target="1qv2fpEwnzw17ocw0TtQ-1">
          <mxGeometry relative="1" as="geometry" />
        </mxCell>
      </root>
    </mxGraphModel>
  </diagram>
</mxfile>
